# xmcd CD database file
#
# Track frame offsets:
#	150
#	11490
#	25436
#	36260
#	47315
#	58970
#	70782
#	83533
#	95483
#	108422
#	119475
#	134427
#	144556
#	159181
#	172399
#	186070
#	203072
#
# Disc length: 2908 seconds
#
# Revision: 0
# Processed by: cddbd v1.5.2PL0 Copyright (c) Steve Scherf et al.
# Submitted via: CDex 1.51
#
DISCID=ea0b5a11
DTITLE=Funny van Dannen - Geile Welt
DYEAR=2014
DGENRE=Country
TTITLE0=Geile Welt
TTITLE1=Wir Fliegen
TTITLE2=Losgehen
TTITLE3=Geld
TTITLE4=Lebensbejahend
TTITLE5=One Day
TTITLE6=Menschen In Landschaften
TTITLE7=Gähnen
TTITLE8=5 Euro
TTITLE9=Sie Ist Nichts Für Dich
TTITLE10=Meine Arbeit
TTITLE11=Souldiva
TTITLE12=Lonely Stuhlbein
TTITLE13=Weltbild
TTITLE14=Frag Bloß Nicht Den Wind
TTITLE15=Lied Über Nichts
TTITLE16=Auf Die Sterne
EXTD=YEAR: 2014
EXTT0=
EXTT1=
EXTT2=
EXTT3=
EXTT4=
EXTT5=
EXTT6=
EXTT7=
EXTT8=
EXTT9=
EXTT10=
EXTT11=
EXTT12=
EXTT13=
EXTT14=
EXTT15=
EXTT16=
PLAYORDER=
